<svg xmlns="http://www.w3.org/2000/svg" viewBox="0 0 1280 800" role="img" aria-label="Cargo web operations dashboard visualization">
  <defs>
    <linearGradient id="bg" x1="0" y1="0" x2="1" y2="1">
      <stop offset="0%" stop-color="#081428"/>
      <stop offset="100%" stop-color="#10294b"/>
    </linearGradient>
    <linearGradient id="card" x1="0" y1="0" x2="0" y2="1">
      <stop offset="0%" stop-color="#15345d"/>
      <stop offset="100%" stop-color="#112949"/>
    </linearGradient>
  </defs>
  <rect width="1280" height="800" fill="url(#bg)"/>
  <rect x="36" y="30" width="1208" height="62" rx="16" fill="#0e203b" stroke="#2f527f"/>
  <circle cx="80" cy="61" r="10" fill="#3b82f6"/>
  <rect x="110" y="48" width="280" height="24" rx="12" fill="#1c3f6f"/>
  <rect x="1030" y="44" width="184" height="32" rx="10" fill="#2563eb"/>

  <rect x="36" y="110" width="280" height="654" rx="16" fill="url(#card)" stroke="#315783"/>
  <rect x="344" y="110" width="900" height="170" rx="16" fill="url(#card)" stroke="#315783"/>
  <rect x="344" y="300" width="430" height="220" rx="16" fill="url(#card)" stroke="#315783"/>
  <rect x="814" y="300" width="430" height="220" rx="16" fill="url(#card)" stroke="#315783"/>
  <rect x="344" y="540" width="900" height="224" rx="16" fill="url(#card)" stroke="#315783"/>

  <g fill="#2d527f">
    <rect x="64" y="156" width="224" height="16" rx="8"/>
    <rect x="64" y="194" width="190" height="14" rx="7"/>
    <rect x="64" y="228" width="210" height="14" rx="7"/>
    <rect x="64" y="262" width="176" height="14" rx="7"/>
    <rect x="64" y="296" width="198" height="14" rx="7"/>
    <rect x="64" y="356" width="224" height="16" rx="8"/>
    <rect x="64" y="392" width="190" height="14" rx="7"/>
    <rect x="64" y="426" width="208" height="14" rx="7"/>
  </g>

  <g>
    <rect x="374" y="142" width="150" height="106" rx="12" fill="#1e3a8a"/>
    <rect x="544" y="142" width="150" height="106" rx="12" fill="#2563eb"/>
    <rect x="714" y="142" width="150" height="106" rx="12" fill="#1d4ed8"/>
    <rect x="884" y="142" width="150" height="106" rx="12" fill="#1e40af"/>
    <rect x="1054" y="142" width="150" height="106" rx="12" fill="#1d4ed8"/>
  </g>

  <polyline points="382,476 448,420 520,446 598,368 684,404 760,340" fill="none" stroke="#60a5fa" stroke-width="8" stroke-linecap="round" stroke-linejoin="round"/>
  <polyline points="850,498 910,438 980,458 1050,394 1120,425 1180,358" fill="none" stroke="#34d399" stroke-width="8" stroke-linecap="round" stroke-linejoin="round"/>

  <g fill="#254a77">
    <rect x="374" y="578" width="838" height="20" rx="10"/>
    <rect x="374" y="616" width="760" height="18" rx="9"/>
    <rect x="374" y="652" width="800" height="18" rx="9"/>
    <rect x="374" y="688" width="700" height="18" rx="9"/>
  </g>
</svg>
