<svg xmlns="http://www.w3.org/2000/svg" viewBox="0 0 1280 800" role="img" aria-label="Mobile webview interface mock for AWTAR KSRTC">
  <rect width="1280" height="800" fill="#0b1325"/>
  <rect x="140" y="86" width="1000" height="628" rx="34" fill="#101d35" stroke="#3b5c88" stroke-width="2"/>

  <g>
    <rect x="224" y="138" width="252" height="520" rx="32" fill="#0f172a" stroke="#5e83b6" stroke-width="2"/>
    <rect x="514" y="138" width="252" height="520" rx="32" fill="#0f172a" stroke="#5e83b6" stroke-width="2"/>
    <rect x="804" y="138" width="252" height="520" rx="32" fill="#0f172a" stroke="#5e83b6" stroke-width="2"/>
  </g>

  <g fill="#1e3a63">
    <rect x="246" y="176" width="208" height="34" rx="10"/>
    <rect x="536" y="176" width="208" height="34" rx="10"/>
    <rect x="826" y="176" width="208" height="34" rx="10"/>

    <rect x="246" y="228" width="208" height="126" rx="12"/>
    <rect x="536" y="228" width="208" height="126" rx="12"/>
    <rect x="826" y="228" width="208" height="126" rx="12"/>

    <rect x="246" y="374" width="208" height="20" rx="10"/>
    <rect x="246" y="408" width="170" height="16" rx="8"/>
    <rect x="246" y="438" width="194" height="16" rx="8"/>

    <rect x="536" y="374" width="208" height="20" rx="10"/>
    <rect x="536" y="408" width="176" height="16" rx="8"/>
    <rect x="536" y="438" width="192" height="16" rx="8"/>

    <rect x="826" y="374" width="208" height="20" rx="10"/>
    <rect x="826" y="408" width="168" height="16" rx="8"/>
    <rect x="826" y="438" width="186" height="16" rx="8"/>
  </g>

  <g fill="#2563eb">
    <rect x="246" y="486" width="208" height="46" rx="14"/>
    <rect x="536" y="486" width="208" height="46" rx="14"/>
    <rect x="826" y="486" width="208" height="46" rx="14"/>
  </g>
</svg>
